<?xml version="1.0" standalone="no"?>
<!DOCTYPE svg PUBLIC "-//W3C//DTD SVG 20010904//EN"
 "http://www.w3.org/TR/2001/REC-SVG-20010904/DTD/svg10.dtd">
<svg version="1.0" xmlns="http://www.w3.org/2000/svg"
 width="2000.000000pt" height="1539.000000pt" viewBox="0 0 2000.000000 1539.000000"
 preserveAspectRatio="xMidYMid meet">
<metadata>
Created by potrace 1.16, written by Peter Selinger 2001-2019
</metadata>
<g transform="translate(0.000000,1539.000000) scale(0.100000,-0.100000)"
fill="#000000" stroke="none">
<path d="M12040 12976 c-14 -8 -47 -50 -73 -93 -26 -44 -60 -94 -75 -113 l-28
-33 -99 2 c-96 2 -190 -11 -228 -31 -35 -18 0 -38 66 -38 l62 0 -26 -25 c-15
-15 -50 -32 -83 -41 -67 -18 -166 -62 -166 -75 0 -5 20 -9 44 -9 92 0 51 -39
-63 -60 -116 -21 -175 -45 -243 -98 -61 -49 -69 -52 -122 -52 -43 0 -56 -3
-56 -15 0 -10 11 -15 35 -15 53 0 44 -24 -19 -53 -30 -14 -64 -39 -78 -58 -26
-34 -58 -92 -58 -105 0 -9 57 3 126 26 53 17 84 17 84 1 0 -4 -36 -22 -80 -41
-45 -18 -109 -55 -143 -82 -94 -75 -134 -95 -205 -101 -35 -3 -67 -8 -70 -12
-4 -3 4 -24 16 -47 13 -22 22 -41 20 -42 -48 -30 -81 -58 -116 -100 l-43 -51
70 -3 c49 -2 87 3 128 17 l58 19 -40 -35 c-153 -133 -462 -183 -795 -127 -138
23 -291 72 -590 189 -433 169 -577 207 -785 207 -231 1 -422 -55 -583 -169
l-63 -44 -47 15 c-136 44 -395 48 -546 7 -112 -30 -231 -90 -300 -153 -125
-112 -316 -357 -359 -460 -9 -20 -37 -122 -62 -225 -125 -506 -216 -672 -523
-953 -81 -74 -134 -131 -149 -160 -33 -64 -54 -178 -56 -300 l-2 -105 43 -3
c107 -8 195 44 376 225 238 236 354 410 591 882 109 220 135 285 180 462 59
228 105 329 189 417 78 83 219 131 336 117 30 -4 58 -9 63 -12 4 -2 -9 -23
-29 -46 -105 -123 -175 -387 -161 -616 7 -121 23 -173 88 -286 31 -54 54 -106
57 -131 7 -61 -23 -138 -72 -189 -61 -63 -128 -84 -305 -96 -311 -22 -350 -61
-338 -333 4 -72 13 -171 22 -221 8 -49 15 -116 15 -148 0 -77 -27 -315 -51
-452 -10 -60 -19 -145 -19 -188 0 -78 0 -79 30 -90 17 -6 30 -14 30 -17 0 -4
-13 -19 -29 -34 -31 -30 -32 -30 -251 -39 l-44 -2 -102 -215 c-56 -118 -99
-219 -94 -223 4 -5 25 -11 46 -14 93 -12 496 190 640 320 43 39 47 48 69 138
54 227 77 445 77 731 l0 197 33 44 c18 24 46 52 62 63 30 21 55 21 418 13 154
-3 164 -2 276 28 111 31 148 33 177 10 22 -17 13 -36 -68 -143 -44 -58 -102
-151 -131 -206 -88 -175 -77 -200 143 -311 181 -90 333 -189 443 -287 173
-155 343 -370 380 -479 24 -75 68 -116 135 -130 31 -6 70 -21 89 -32 l33 -20
-4 -71 -3 -70 220 -84 c121 -46 229 -87 239 -90 18 -6 19 -1 14 112 -6 143
-18 175 -108 289 -72 90 -657 685 -795 807 -49 44 -103 92 -119 106 -38 34
-66 97 -66 148 0 52 42 117 118 182 67 57 111 122 204 307 39 77 86 162 106
188 43 59 117 117 150 117 14 0 97 -32 185 -71 164 -72 248 -99 677 -212 188
-50 268 -67 345 -72 118 -8 181 -30 191 -69 12 -51 -39 -217 -126 -405 -34
-73 -59 -140 -56 -149 18 -57 24 -166 15 -262 -14 -155 -47 -340 -74 -421 -32
-92 -136 -292 -211 -403 -123 -181 -123 -206 -9 -264 22 -11 53 -34 69 -51 27
-28 28 -34 21 -78 -4 -26 -8 -63 -9 -82 l-1 -34 255 -109 c140 -59 255 -108
256 -108 1 0 5 24 8 54 8 61 -6 97 -66 177 -100 132 -211 306 -215 340 -7 47
15 122 130 439 107 296 278 680 509 1138 113 223 150 289 177 309 49 38 139
72 189 73 76 0 330 -89 652 -230 167 -73 208 -98 195 -120 -11 -18 -529 -360
-619 -408 -42 -23 -87 -42 -98 -42 -22 0 -78 -51 -78 -73 0 -15 -26 -41 -51
-50 -27 -9 -111 37 -175 96 l-60 56 -51 -29 c-59 -34 -100 -73 -164 -155 -43
-56 -109 -173 -109 -194 0 -5 18 -16 40 -25 53 -21 497 -23 575 -3 75 20 1101
697 1172 774 65 70 93 125 93 187 0 42 -5 52 -47 98 -89 95 -588 412 -743 472
-41 16 -76 30 -77 31 -2 1 15 55 37 121 36 106 42 135 50 265 10 161 31 239
96 356 19 34 54 120 79 190 75 220 151 385 187 407 14 8 33 5 80 -12 57 -20
81 -22 251 -22 213 0 224 -3 341 -94 61 -47 144 -85 206 -93 30 -4 43 2 93 42
32 25 61 53 64 61 8 22 -19 46 -110 100 l-81 48 34 14 c46 19 91 8 140 -33 43
-36 102 -60 125 -51 22 8 75 96 75 125 0 56 -42 111 -198 260 -87 82 -176 164
-200 183 -125 97 -163 131 -189 169 -60 90 -125 146 -352 307 -129 92 -252
185 -273 207 -45 46 -54 74 -68 215 -15 145 -13 140 -68 140 -26 -1 -58 -7
-72 -14z"/>
<path d="M12130 6770 l0 -150 -620 0 -620 0 0 -120 0 -120 1390 0 1390 0 0
120 0 120 -605 0 -605 0 0 150 0 150 -165 0 -165 0 0 -150z"/>
<path d="M5120 6195 l0 -665 -330 0 -330 0 0 -130 0 -130 330 0 330 0 0 -935
0 -935 160 0 160 0 0 1730 0 1730 -160 0 -160 0 0 -665z"/>
<path d="M15656 6614 c-13 -13 -16 -45 -16 -195 0 -184 -5 -221 -47 -349 -78
-238 -295 -494 -578 -682 -145 -97 -441 -224 -568 -245 -21 -3 -41 -11 -43
-18 -3 -7 18 -54 46 -106 28 -52 58 -109 67 -126 9 -18 24 -33 33 -33 32 0
206 57 305 100 414 181 752 475 925 807 18 34 36 60 40 58 5 -3 23 -33 40 -67
204 -393 641 -732 1126 -872 48 -14 95 -26 104 -26 8 0 29 27 48 63 91 171
104 198 99 204 -4 3 -39 14 -79 23 -402 99 -815 387 -1016 709 -110 177 -139
284 -148 551 -5 160 -9 197 -22 208 -11 8 -59 12 -158 12 -116 0 -145 -3 -158
-16z"/>
<path d="M6507 6603 c-4 -3 -7 -408 -7 -900 l0 -893 1195 0 1195 0 -2 898 -3
897 -155 0 -155 0 -5 -310 -5 -310 -869 0 -868 0 1 292 c1 195 -2 299 -9 313
-10 19 -20 20 -159 20 -81 0 -151 -3 -154 -7z m2061 -1208 l-3 -320 -859 -3
c-473 -1 -864 2 -868 6 -6 6 -13 578 -8 635 0 1 392 2 870 2 l870 0 -2 -320z"/>
<path d="M2720 6410 l0 -130 615 0 615 0 0 -345 0 -345 -610 0 -610 0 0 -681
0 -682 448 6 c572 8 879 28 1232 83 91 14 165 26 166 27 2 4 -28 262 -31 265
-2 2 -77 -8 -167 -22 -256 -40 -563 -65 -923 -76 -181 -5 -347 -10 -367 -10
l-38 0 0 415 0 415 610 0 610 0 0 605 0 605 -775 0 -775 0 0 -130z"/>
<path d="M12005 6240 c-283 -16 -528 -78 -662 -167 -119 -79 -170 -174 -161
-302 17 -233 277 -371 772 -411 71 -5 140 -10 152 -10 24 0 24 -1 24 -115 l0
-115 -700 0 -700 0 0 -120 0 -120 1560 0 1560 0 0 120 0 120 -695 0 -695 0 0
115 c0 113 0 115 23 115 70 0 305 24 393 40 363 67 549 219 532 435 -16 199
-210 326 -593 390 -185 31 -515 41 -810 25z m673 -234 c214 -32 333 -78 370
-144 28 -51 28 -89 -2 -132 -45 -66 -160 -110 -371 -142 -142 -21 -648 -17
-794 6 -214 33 -315 77 -351 151 -64 132 90 230 420 265 52 5 111 12 130 14
79 9 500 -4 598 -18z"/>
<path d="M11110 4550 l0 -120 1010 0 1010 0 0 -125 0 -125 -1005 0 -1005 0 0
-370 0 -370 1220 0 1220 0 0 125 0 125 -1060 0 -1060 0 0 135 0 135 1010 0
1010 0 0 355 0 355 -1175 0 -1175 0 0 -120z"/>
<path d="M6142 4132 c-9 -7 -12 -41 -10 -138 l3 -129 1545 -3 c850 -1 1555 0
1568 3 21 5 22 9 22 128 0 82 -4 127 -12 135 -9 9 -369 12 -1557 12 -851 0
-1552 -4 -1559 -8z"/>
<path d="M14267 4133 c-13 -12 -8 -248 5 -261 9 -9 369 -12 1557 -12 851 0
1552 4 1559 8 9 7 12 41 10 138 l-3 129 -1561 3 c-858 1 -1564 -1 -1567 -5z"/>
</g>
</svg>
